<mxfile host="app.diagrams.net" modified="2023-10-28T02:12:37.673Z" agent="Mozilla/5.0 (Windows NT 10.0; Win64; x64) AppleWebKit/537.36 (KHTML, like Gecko) Chrome/118.0.0.0 Safari/537.36" version="21.6.1" etag="OiXC5u-OlNugY9uvUIPp" type="github">
  <diagram name="Halaman-1" id="UcWVOutqUxkQmG0Q4xtQ">
    <mxGraphModel>
      <root>
        <mxCell id="0" />
        <mxCell id="1" parent="0" />
      </root>
    </mxGraphModel>
  </diagram>
</mxfile>
